<mxfile host="app.diagrams.net" agent="Mozilla/5.0 (Windows NT 10.0; Win64; x64; rv:128.0) Gecko/20100101 Firefox/128.0" version="24.7.5">
  <diagram name="Seite-1" id="4Y3atV6oG5Znlql7_aEc">
    <mxGraphModel dx="691" dy="353" grid="1" gridSize="10" guides="1" tooltips="1" connect="1" arrows="1" fold="1" page="1" pageScale="1" pageWidth="1169" pageHeight="827" math="0" shadow="0">
      <root>
        <mxCell id="0" />
        <mxCell id="1" parent="0" />
        <mxCell id="q7zzMSOo_jR7e1-AT5cJ-66" style="edgeStyle=orthogonalEdgeStyle;rounded=0;orthogonalLoop=1;jettySize=auto;html=1;exitX=0.25;exitY=0;exitDx=0;exitDy=0;entryX=1;entryY=0.75;entryDx=0;entryDy=0;strokeColor=#0447BA;" parent="1" source="SHTA3h0qwpg2tiM8Guuv-9" target="TScCZYWJyUS9mnTxurQc-1" edge="1">
          <mxGeometry relative="1" as="geometry" />
        </mxCell>
        <mxCell id="q7zzMSOo_jR7e1-AT5cJ-69" value="&lt;font color=&quot;#0447ba&quot;&gt;pipeline_debug&lt;/font&gt;" style="edgeLabel;html=1;align=center;verticalAlign=middle;resizable=0;points=[];" parent="q7zzMSOo_jR7e1-AT5cJ-66" vertex="1" connectable="0">
          <mxGeometry x="0.1198" y="-1" relative="1" as="geometry">
            <mxPoint x="-39" y="-19" as="offset" />
          </mxGeometry>
        </mxCell>
        <mxCell id="q7zzMSOo_jR7e1-AT5cJ-67" style="edgeStyle=orthogonalEdgeStyle;rounded=0;orthogonalLoop=1;jettySize=auto;html=1;exitX=1;exitY=0.25;exitDx=0;exitDy=0;entryX=0.75;entryY=0;entryDx=0;entryDy=0;curved=0;strokeColor=#C73500;" parent="1" source="TScCZYWJyUS9mnTxurQc-1" target="SHTA3h0qwpg2tiM8Guuv-9" edge="1">
          <mxGeometry relative="1" as="geometry" />
        </mxCell>
        <mxCell id="q7zzMSOo_jR7e1-AT5cJ-68" value="&lt;div&gt;&lt;font color=&quot;#c73500&quot;&gt;pipeline_debug_ctrl&lt;/font&gt;&lt;/div&gt;" style="edgeLabel;html=1;align=center;verticalAlign=middle;resizable=0;points=[];" parent="q7zzMSOo_jR7e1-AT5cJ-67" vertex="1" connectable="0">
          <mxGeometry x="-0.3394" relative="1" as="geometry">
            <mxPoint x="84" y="-10" as="offset" />
          </mxGeometry>
        </mxCell>
        <mxCell id="SHTA3h0qwpg2tiM8Guuv-9" value="" style="rounded=0;whiteSpace=wrap;html=1;fillColor=none;dashed=1;dashPattern=1 1;" parent="1" vertex="1">
          <mxGeometry x="590" y="310" width="350" height="130" as="geometry" />
        </mxCell>
        <mxCell id="i_uc1xlqpfVxm8rX9wbe-28" style="edgeStyle=orthogonalEdgeStyle;rounded=0;orthogonalLoop=1;jettySize=auto;html=1;entryX=1;entryY=0.5;entryDx=0;entryDy=0;" parent="1" target="i_uc1xlqpfVxm8rX9wbe-25" edge="1">
          <mxGeometry relative="1" as="geometry">
            <mxPoint x="979.9999999999999" y="360" as="targetPoint" />
            <mxPoint x="980" y="365" as="sourcePoint" />
            <Array as="points">
              <mxPoint x="970" y="365" />
              <mxPoint x="970" y="365" />
            </Array>
          </mxGeometry>
        </mxCell>
        <mxCell id="i_uc1xlqpfVxm8rX9wbe-46" value="R" style="edgeLabel;html=1;align=center;verticalAlign=middle;resizable=0;points=[];" parent="i_uc1xlqpfVxm8rX9wbe-28" vertex="1" connectable="0">
          <mxGeometry x="-0.7371" relative="1" as="geometry">
            <mxPoint x="20" as="offset" />
          </mxGeometry>
        </mxCell>
        <mxCell id="i_uc1xlqpfVxm8rX9wbe-33" style="edgeStyle=orthogonalEdgeStyle;rounded=0;orthogonalLoop=1;jettySize=auto;html=1;entryX=1;entryY=0.5;entryDx=0;entryDy=0;fillColor=#e3c800;strokeColor=#B09500;" parent="1" target="B4w6q22N6Aw5igcjDcby-9" edge="1">
          <mxGeometry relative="1" as="geometry">
            <mxPoint x="980" y="620" as="sourcePoint" />
            <mxPoint x="620" y="612.56" as="targetPoint" />
            <Array as="points">
              <mxPoint x="980" y="620" />
            </Array>
          </mxGeometry>
        </mxCell>
        <mxCell id="i_uc1xlqpfVxm8rX9wbe-39" value="CLK" style="edgeLabel;html=1;align=center;verticalAlign=middle;resizable=0;points=[];" parent="i_uc1xlqpfVxm8rX9wbe-33" vertex="1" connectable="0">
          <mxGeometry x="-0.7559" relative="1" as="geometry">
            <mxPoint x="57" as="offset" />
          </mxGeometry>
        </mxCell>
        <mxCell id="SHTA3h0qwpg2tiM8Guuv-7" value="R[9:0]" style="edgeStyle=orthogonalEdgeStyle;rounded=0;orthogonalLoop=1;jettySize=auto;html=1;exitX=0;exitY=0.5;exitDx=0;exitDy=0;entryX=1;entryY=0.5;entryDx=0;entryDy=0;" parent="1" source="i_uc1xlqpfVxm8rX9wbe-25" target="i_uc1xlqpfVxm8rX9wbe-34" edge="1">
          <mxGeometry y="-10" relative="1" as="geometry">
            <mxPoint as="offset" />
          </mxGeometry>
        </mxCell>
        <mxCell id="i_uc1xlqpfVxm8rX9wbe-25" value="&lt;div&gt;&lt;b&gt;Deserializer&lt;/b&gt;&lt;/div&gt;&lt;div&gt;- IODELAY&lt;/div&gt;&lt;div&gt;- ISERDES&lt;/div&gt;" style="rounded=0;whiteSpace=wrap;html=1;" parent="1" vertex="1">
          <mxGeometry x="840" y="320" width="90" height="90" as="geometry" />
        </mxCell>
        <mxCell id="SHTA3h0qwpg2tiM8Guuv-8" value="R[9:0]" style="edgeStyle=orthogonalEdgeStyle;rounded=0;orthogonalLoop=1;jettySize=auto;html=1;exitX=0;exitY=0.5;exitDx=0;exitDy=0;entryX=0.997;entryY=0.452;entryDx=0;entryDy=0;entryPerimeter=0;" parent="1" source="i_uc1xlqpfVxm8rX9wbe-34" target="B4w6q22N6Aw5igcjDcby-2" edge="1">
          <mxGeometry x="0.0281" y="-10" relative="1" as="geometry">
            <mxPoint x="760.9999999999999" y="360" as="sourcePoint" />
            <mxPoint x="720.9999999999999" y="360" as="targetPoint" />
            <mxPoint as="offset" />
            <Array as="points">
              <mxPoint x="740" y="365" />
            </Array>
          </mxGeometry>
        </mxCell>
        <mxCell id="i_uc1xlqpfVxm8rX9wbe-34" value="Clock Data Recovery&lt;br&gt;" style="rounded=0;whiteSpace=wrap;html=1;fontStyle=1;textDirection=vertical-rl;" parent="1" vertex="1">
          <mxGeometry x="760" y="320" width="40" height="90" as="geometry" />
        </mxCell>
        <mxCell id="i_uc1xlqpfVxm8rX9wbe-35" style="edgeStyle=orthogonalEdgeStyle;rounded=0;orthogonalLoop=1;jettySize=auto;html=1;entryX=0.224;entryY=1;entryDx=0;entryDy=0;exitX=0.75;exitY=1;exitDx=0;exitDy=0;entryPerimeter=0;" parent="1" source="i_uc1xlqpfVxm8rX9wbe-34" target="i_uc1xlqpfVxm8rX9wbe-25" edge="1">
          <mxGeometry relative="1" as="geometry">
            <mxPoint x="650" y="500" as="sourcePoint" />
            <Array as="points">
              <mxPoint x="790" y="430" />
              <mxPoint x="860" y="430" />
            </Array>
          </mxGeometry>
        </mxCell>
        <mxCell id="i_uc1xlqpfVxm8rX9wbe-36" value="&lt;div&gt;delay,&lt;/div&gt;&lt;div&gt;bitslip&lt;/div&gt;" style="edgeLabel;html=1;align=center;verticalAlign=middle;resizable=0;points=[];" parent="i_uc1xlqpfVxm8rX9wbe-35" vertex="1" connectable="0">
          <mxGeometry x="0.1316" relative="1" as="geometry">
            <mxPoint x="-12" y="-20" as="offset" />
          </mxGeometry>
        </mxCell>
        <mxCell id="q7zzMSOo_jR7e1-AT5cJ-31" style="edgeStyle=orthogonalEdgeStyle;rounded=0;orthogonalLoop=1;jettySize=auto;html=1;exitX=0.25;exitY=0;exitDx=0;exitDy=0;entryX=0;entryY=0.25;entryDx=0;entryDy=0;fillColor=#dae8fc;strokeColor=#0447BA;" parent="1" source="i_uc1xlqpfVxm8rX9wbe-54" target="TScCZYWJyUS9mnTxurQc-1" edge="1">
          <mxGeometry relative="1" as="geometry" />
        </mxCell>
        <mxCell id="q7zzMSOo_jR7e1-AT5cJ-32" value="&lt;font color=&quot;#0447ba&quot;&gt;framebuffers_debug&lt;/font&gt;" style="edgeLabel;html=1;align=center;verticalAlign=middle;resizable=0;points=[];" parent="q7zzMSOo_jR7e1-AT5cJ-31" vertex="1" connectable="0">
          <mxGeometry x="-0.3815" relative="1" as="geometry">
            <mxPoint x="50" y="-79" as="offset" />
          </mxGeometry>
        </mxCell>
        <mxCell id="q7zzMSOo_jR7e1-AT5cJ-75" style="edgeStyle=orthogonalEdgeStyle;rounded=0;orthogonalLoop=1;jettySize=auto;html=1;entryX=0.75;entryY=0;entryDx=0;entryDy=0;" parent="1" target="i_uc1xlqpfVxm8rX9wbe-54" edge="1">
          <mxGeometry relative="1" as="geometry">
            <mxPoint x="160" y="240" as="sourcePoint" />
            <Array as="points">
              <mxPoint x="160" y="250" />
              <mxPoint x="160" y="250" />
            </Array>
          </mxGeometry>
        </mxCell>
        <mxCell id="q7zzMSOo_jR7e1-AT5cJ-76" value="framebuffers_control" style="edgeLabel;html=1;align=center;verticalAlign=middle;resizable=0;points=[];" parent="q7zzMSOo_jR7e1-AT5cJ-75" vertex="1" connectable="0">
          <mxGeometry x="-0.28" y="-1" relative="1" as="geometry">
            <mxPoint y="-28" as="offset" />
          </mxGeometry>
        </mxCell>
        <mxCell id="i_uc1xlqpfVxm8rX9wbe-54" value="&lt;b&gt;Framebuffers&lt;/b&gt;" style="rounded=0;whiteSpace=wrap;html=1;verticalAlign=top;" parent="1" vertex="1">
          <mxGeometry x="40" y="290" width="160" height="200" as="geometry" />
        </mxCell>
        <mxCell id="i_uc1xlqpfVxm8rX9wbe-55" value="Framebuffer 1" style="rounded=0;whiteSpace=wrap;html=1;dashed=1;" parent="1" vertex="1">
          <mxGeometry x="60" y="330" width="120" height="60" as="geometry" />
        </mxCell>
        <mxCell id="i_uc1xlqpfVxm8rX9wbe-56" value="Framebuffer 2" style="rounded=0;whiteSpace=wrap;html=1;dashed=1;" parent="1" vertex="1">
          <mxGeometry x="60" y="400" width="120" height="60" as="geometry" />
        </mxCell>
        <mxCell id="i_uc1xlqpfVxm8rX9wbe-96" value="" style="endArrow=classic;startArrow=classic;html=1;rounded=0;entryX=0.25;entryY=1;entryDx=0;entryDy=0;" parent="1" target="i_uc1xlqpfVxm8rX9wbe-54" edge="1">
          <mxGeometry width="50" height="50" relative="1" as="geometry">
            <mxPoint x="80" y="530" as="sourcePoint" />
            <mxPoint x="80" y="489.9999999999998" as="targetPoint" />
          </mxGeometry>
        </mxCell>
        <mxCell id="i_uc1xlqpfVxm8rX9wbe-98" value="tl_device_fast" style="edgeLabel;html=1;align=center;verticalAlign=middle;resizable=0;points=[];" parent="i_uc1xlqpfVxm8rX9wbe-96" vertex="1" connectable="0">
          <mxGeometry x="-0.7" y="1" relative="1" as="geometry">
            <mxPoint y="16" as="offset" />
          </mxGeometry>
        </mxCell>
        <mxCell id="i_uc1xlqpfVxm8rX9wbe-100" value="&lt;b&gt;HDMI E-DDC&lt;/b&gt;" style="rounded=0;whiteSpace=wrap;html=1;verticalAlign=top;" parent="1" vertex="1">
          <mxGeometry x="739.9999999999999" y="672.8" width="160" height="120" as="geometry" />
        </mxCell>
        <mxCell id="i_uc1xlqpfVxm8rX9wbe-101" value="&lt;div&gt;EDID Data&lt;/div&gt;&lt;div&gt;RAM (programmable)&lt;br&gt;&lt;/div&gt;" style="rounded=0;whiteSpace=wrap;html=1;dashed=1;" parent="1" vertex="1">
          <mxGeometry x="759.9999999999999" y="712.8" width="120" height="60" as="geometry" />
        </mxCell>
        <mxCell id="i_uc1xlqpfVxm8rX9wbe-102" value="" style="endArrow=classic;startArrow=classic;html=1;rounded=0;exitX=1.01;exitY=0.663;exitDx=0;exitDy=0;exitPerimeter=0;" parent="1" source="i_uc1xlqpfVxm8rX9wbe-100" edge="1">
          <mxGeometry width="50" height="50" relative="1" as="geometry">
            <mxPoint x="949.9999999999999" y="782.8" as="sourcePoint" />
            <mxPoint x="979.9999999999999" y="752.8" as="targetPoint" />
          </mxGeometry>
        </mxCell>
        <mxCell id="i_uc1xlqpfVxm8rX9wbe-104" value="SDA" style="edgeLabel;html=1;align=center;verticalAlign=middle;resizable=0;points=[];" parent="i_uc1xlqpfVxm8rX9wbe-102" vertex="1" connectable="0">
          <mxGeometry x="0.8367" relative="1" as="geometry">
            <mxPoint x="26" as="offset" />
          </mxGeometry>
        </mxCell>
        <mxCell id="i_uc1xlqpfVxm8rX9wbe-103" value="" style="endArrow=classic;html=1;rounded=0;entryX=1.003;entryY=0.33;entryDx=0;entryDy=0;entryPerimeter=0;" parent="1" target="i_uc1xlqpfVxm8rX9wbe-100" edge="1">
          <mxGeometry width="50" height="50" relative="1" as="geometry">
            <mxPoint x="979.9999999999999" y="712.8" as="sourcePoint" />
            <mxPoint x="989.9999999999999" y="672.8" as="targetPoint" />
          </mxGeometry>
        </mxCell>
        <mxCell id="i_uc1xlqpfVxm8rX9wbe-105" value="SCL" style="edgeLabel;html=1;align=center;verticalAlign=middle;resizable=0;points=[];" parent="i_uc1xlqpfVxm8rX9wbe-103" vertex="1" connectable="0">
          <mxGeometry x="-0.8993" y="-1" relative="1" as="geometry">
            <mxPoint x="24" y="1" as="offset" />
          </mxGeometry>
        </mxCell>
        <mxCell id="xgiaLBF21RZuXKayEJnQ-1" value="valid" style="edgeStyle=orthogonalEdgeStyle;rounded=0;orthogonalLoop=1;jettySize=auto;html=1;exitX=0.916;exitY=0.998;exitDx=0;exitDy=0;exitPerimeter=0;" parent="1" source="B4w6q22N6Aw5igcjDcby-2" edge="1">
          <mxGeometry x="-0.1304" y="10" relative="1" as="geometry">
            <Array as="points">
              <mxPoint x="710" y="430" />
              <mxPoint x="770" y="430" />
            </Array>
            <mxPoint as="offset" />
            <mxPoint x="770" y="410" as="targetPoint" />
          </mxGeometry>
        </mxCell>
        <mxCell id="B4w6q22N6Aw5igcjDcby-2" value="&lt;b&gt;TMDS Decode&lt;/b&gt;" style="rounded=0;whiteSpace=wrap;html=1;" parent="1" vertex="1">
          <mxGeometry x="600" y="320" width="120" height="100" as="geometry" />
        </mxCell>
        <mxCell id="B4w6q22N6Aw5igcjDcby-13" style="edgeStyle=orthogonalEdgeStyle;rounded=0;orthogonalLoop=1;jettySize=auto;html=1;entryX=0.75;entryY=1;entryDx=0;entryDy=0;fillColor=#e3c800;strokeColor=#B09500;" parent="1" source="B4w6q22N6Aw5igcjDcby-9" target="i_uc1xlqpfVxm8rX9wbe-54" edge="1">
          <mxGeometry relative="1" as="geometry">
            <mxPoint x="220" y="470" as="targetPoint" />
            <Array as="points">
              <mxPoint x="480" y="620" />
              <mxPoint x="480" y="530" />
              <mxPoint x="160" y="530" />
            </Array>
          </mxGeometry>
        </mxCell>
        <mxCell id="B4w6q22N6Aw5igcjDcby-15" value="&lt;font color=&quot;#b09500&quot;&gt;pclk&lt;/font&gt;" style="edgeLabel;html=1;align=center;verticalAlign=middle;resizable=0;points=[];" parent="B4w6q22N6Aw5igcjDcby-13" vertex="1" connectable="0">
          <mxGeometry x="0.1173" y="-1" relative="1" as="geometry">
            <mxPoint x="106" y="11" as="offset" />
          </mxGeometry>
        </mxCell>
        <mxCell id="B4w6q22N6Aw5igcjDcby-22" style="edgeStyle=orthogonalEdgeStyle;rounded=0;orthogonalLoop=1;jettySize=auto;html=1;exitX=0.5;exitY=0;exitDx=0;exitDy=0;fillColor=#e3c800;strokeColor=#B09500;entryX=0.446;entryY=1;entryDx=0;entryDy=0;entryPerimeter=0;" parent="1" source="B4w6q22N6Aw5igcjDcby-9" target="i_uc1xlqpfVxm8rX9wbe-25" edge="1">
          <mxGeometry relative="1" as="geometry">
            <Array as="points">
              <mxPoint x="620" y="570" />
              <mxPoint x="880" y="570" />
            </Array>
            <mxPoint x="880" y="410" as="targetPoint" />
          </mxGeometry>
        </mxCell>
        <mxCell id="B4w6q22N6Aw5igcjDcby-24" value="&lt;font color=&quot;#b09500&quot;&gt;pclk5x&lt;/font&gt;" style="edgeLabel;html=1;align=center;verticalAlign=middle;resizable=0;points=[];" parent="B4w6q22N6Aw5igcjDcby-22" vertex="1" connectable="0">
          <mxGeometry x="0.8202" y="-1" relative="1" as="geometry">
            <mxPoint x="-21" y="110" as="offset" />
          </mxGeometry>
        </mxCell>
        <mxCell id="B4w6q22N6Aw5igcjDcby-29" style="edgeStyle=orthogonalEdgeStyle;rounded=0;orthogonalLoop=1;jettySize=auto;html=1;exitX=0;exitY=0.5;exitDx=0;exitDy=0;entryX=0.5;entryY=1;entryDx=0;entryDy=0;fillColor=#e3c800;strokeColor=#B09500;" parent="1" source="B4w6q22N6Aw5igcjDcby-9" target="i_uc1xlqpfVxm8rX9wbe-34" edge="1">
          <mxGeometry relative="1" as="geometry">
            <Array as="points">
              <mxPoint x="480" y="620" />
              <mxPoint x="480" y="530" />
              <mxPoint x="780" y="530" />
            </Array>
          </mxGeometry>
        </mxCell>
        <mxCell id="B4w6q22N6Aw5igcjDcby-30" style="edgeStyle=orthogonalEdgeStyle;rounded=0;orthogonalLoop=1;jettySize=auto;html=1;exitX=0;exitY=0.5;exitDx=0;exitDy=0;fillColor=#e3c800;strokeColor=#B09500;entryX=0.286;entryY=1.002;entryDx=0;entryDy=0;entryPerimeter=0;" parent="1" source="B4w6q22N6Aw5igcjDcby-9" target="q7zzMSOo_jR7e1-AT5cJ-36" edge="1">
          <mxGeometry relative="1" as="geometry">
            <mxPoint x="480" y="430" as="targetPoint" />
            <Array as="points">
              <mxPoint x="480" y="620" />
            </Array>
          </mxGeometry>
        </mxCell>
        <mxCell id="B4w6q22N6Aw5igcjDcby-31" style="edgeStyle=orthogonalEdgeStyle;rounded=0;orthogonalLoop=1;jettySize=auto;html=1;exitX=0;exitY=0.5;exitDx=0;exitDy=0;entryX=0.25;entryY=1;entryDx=0;entryDy=0;fillColor=#e3c800;strokeColor=#B09500;" parent="1" source="B4w6q22N6Aw5igcjDcby-9" target="B4w6q22N6Aw5igcjDcby-2" edge="1">
          <mxGeometry relative="1" as="geometry">
            <Array as="points">
              <mxPoint x="480" y="620" />
              <mxPoint x="480" y="530" />
              <mxPoint x="630" y="530" />
            </Array>
          </mxGeometry>
        </mxCell>
        <mxCell id="B4w6q22N6Aw5igcjDcby-9" value="&lt;font color=&quot;#b09500&quot;&gt;PLL&lt;/font&gt;" style="rounded=0;whiteSpace=wrap;html=1;fillColor=none;fontColor=#000000;strokeColor=#B09500;" parent="1" vertex="1">
          <mxGeometry x="560" y="590" width="120" height="60" as="geometry" />
        </mxCell>
        <mxCell id="B4w6q22N6Aw5igcjDcby-12" value="" style="endArrow=classic;html=1;rounded=0;entryX=0.5;entryY=1;entryDx=0;entryDy=0;" parent="1" target="i_uc1xlqpfVxm8rX9wbe-54" edge="1">
          <mxGeometry width="50" height="50" relative="1" as="geometry">
            <mxPoint x="120" y="570" as="sourcePoint" />
            <mxPoint x="160" y="490" as="targetPoint" />
          </mxGeometry>
        </mxCell>
        <mxCell id="B4w6q22N6Aw5igcjDcby-14" value="sys_clk" style="edgeLabel;html=1;align=center;verticalAlign=middle;resizable=0;points=[];" parent="B4w6q22N6Aw5igcjDcby-12" vertex="1" connectable="0">
          <mxGeometry x="-0.0389" relative="1" as="geometry">
            <mxPoint y="44" as="offset" />
          </mxGeometry>
        </mxCell>
        <mxCell id="B4w6q22N6Aw5igcjDcby-33" value="" style="endArrow=classic;startArrow=classic;html=1;rounded=0;entryX=0;entryY=0.25;entryDx=0;entryDy=0;" parent="1" target="i_uc1xlqpfVxm8rX9wbe-100" edge="1">
          <mxGeometry width="50" height="50" relative="1" as="geometry">
            <mxPoint x="660" y="702.8" as="sourcePoint" />
            <mxPoint x="739.9999999999999" y="716.8" as="targetPoint" />
          </mxGeometry>
        </mxCell>
        <mxCell id="B4w6q22N6Aw5igcjDcby-34" value="tl_device_peri" style="edgeLabel;html=1;align=center;verticalAlign=middle;resizable=0;points=[];" parent="B4w6q22N6Aw5igcjDcby-33" vertex="1" connectable="0">
          <mxGeometry x="-0.28" y="-1" relative="1" as="geometry">
            <mxPoint x="-69" y="-1" as="offset" />
          </mxGeometry>
        </mxCell>
        <mxCell id="q7zzMSOo_jR7e1-AT5cJ-72" style="edgeStyle=orthogonalEdgeStyle;rounded=0;orthogonalLoop=1;jettySize=auto;html=1;exitX=0.25;exitY=0;exitDx=0;exitDy=0;entryX=0.705;entryY=0.995;entryDx=0;entryDy=0;entryPerimeter=0;strokeColor=#0447BA;" parent="1" source="q7zzMSOo_jR7e1-AT5cJ-36" target="TScCZYWJyUS9mnTxurQc-1" edge="1">
          <mxGeometry relative="1" as="geometry" />
        </mxCell>
        <mxCell id="q7zzMSOo_jR7e1-AT5cJ-79" value="&lt;div&gt;&lt;font color=&quot;#0447ba&quot;&gt;channel_deskew_debug&lt;/font&gt;&lt;/div&gt;" style="edgeLabel;html=1;align=center;verticalAlign=middle;resizable=0;points=[];rotation=90;" parent="q7zzMSOo_jR7e1-AT5cJ-72" vertex="1" connectable="0">
          <mxGeometry x="-0.0423" y="-1" relative="1" as="geometry">
            <mxPoint x="16" y="-3" as="offset" />
          </mxGeometry>
        </mxCell>
        <mxCell id="TScCZYWJyUS9mnTxurQc-1" value="&lt;b&gt;&lt;font style=&quot;font-size: 14px;&quot;&gt;Debug Interface&lt;/font&gt;&lt;/b&gt;" style="rounded=0;whiteSpace=wrap;html=1;fillColor=#3399FF;strokeColor=#6c8ebf;fillStyle=auto;gradientDirection=south;glass=0;shadow=0;" parent="1" vertex="1">
          <mxGeometry x="280" y="80" width="280" height="80" as="geometry" />
        </mxCell>
        <mxCell id="TScCZYWJyUS9mnTxurQc-2" value="" style="endArrow=classic;startArrow=classic;html=1;rounded=0;exitX=0.25;exitY=0;exitDx=0;exitDy=0;" parent="1" source="TScCZYWJyUS9mnTxurQc-1" edge="1">
          <mxGeometry width="50" height="50" relative="1" as="geometry">
            <mxPoint x="179.1" y="90" as="sourcePoint" />
            <mxPoint x="350" y="40" as="targetPoint" />
          </mxGeometry>
        </mxCell>
        <mxCell id="TScCZYWJyUS9mnTxurQc-14" value="tl_device_peri" style="edgeLabel;html=1;align=center;verticalAlign=middle;resizable=0;points=[];" parent="TScCZYWJyUS9mnTxurQc-2" vertex="1" connectable="0">
          <mxGeometry x="0.0167" y="-1" relative="1" as="geometry">
            <mxPoint y="-30" as="offset" />
          </mxGeometry>
        </mxCell>
        <mxCell id="TScCZYWJyUS9mnTxurQc-3" value="" style="endArrow=classic;html=1;rounded=0;entryX=0.75;entryY=0;entryDx=0;entryDy=0;" parent="1" target="TScCZYWJyUS9mnTxurQc-1" edge="1">
          <mxGeometry width="50" height="50" relative="1" as="geometry">
            <mxPoint x="490" y="40" as="sourcePoint" />
            <mxPoint x="459.1" y="60" as="targetPoint" />
          </mxGeometry>
        </mxCell>
        <mxCell id="TScCZYWJyUS9mnTxurQc-15" value="sys_clk" style="edgeLabel;html=1;align=center;verticalAlign=middle;resizable=0;points=[];" parent="TScCZYWJyUS9mnTxurQc-3" vertex="1" connectable="0">
          <mxGeometry x="-0.0167" relative="1" as="geometry">
            <mxPoint x="5" y="-30" as="offset" />
          </mxGeometry>
        </mxCell>
        <mxCell id="SHTA3h0qwpg2tiM8Guuv-10" value="&lt;b&gt;Channel Input Pipe&lt;/b&gt;&lt;div&gt;&lt;i&gt;(x3)&lt;/i&gt;&lt;/div&gt;" style="text;html=1;align=center;verticalAlign=middle;whiteSpace=wrap;rounded=0;" parent="1" vertex="1">
          <mxGeometry x="889.9999999999999" y="270" width="60" height="30" as="geometry" />
        </mxCell>
        <mxCell id="SHTA3h0qwpg2tiM8Guuv-16" value="&lt;i&gt;...&lt;/i&gt;&lt;div&gt;&lt;i&gt;for G and B&lt;/i&gt;&lt;/div&gt;" style="text;html=1;align=center;verticalAlign=middle;whiteSpace=wrap;rounded=0;" parent="1" vertex="1">
          <mxGeometry x="410" y="410" width="45" height="40" as="geometry" />
        </mxCell>
        <mxCell id="SHTA3h0qwpg2tiM8Guuv-22" value="" style="endArrow=classic;html=1;rounded=0;entryX=0;entryY=0.75;entryDx=0;entryDy=0;" parent="1" target="i_uc1xlqpfVxm8rX9wbe-100" edge="1">
          <mxGeometry width="50" height="50" relative="1" as="geometry">
            <mxPoint x="660" y="762.8" as="sourcePoint" />
            <mxPoint x="739.9999999999999" y="746.8" as="targetPoint" />
          </mxGeometry>
        </mxCell>
        <mxCell id="SHTA3h0qwpg2tiM8Guuv-23" value="sys_clk" style="edgeLabel;html=1;align=center;verticalAlign=middle;resizable=0;points=[];" parent="SHTA3h0qwpg2tiM8Guuv-22" vertex="1" connectable="0">
          <mxGeometry x="-0.0389" relative="1" as="geometry">
            <mxPoint x="-65" as="offset" />
          </mxGeometry>
        </mxCell>
        <mxCell id="q7zzMSOo_jR7e1-AT5cJ-3" style="edgeStyle=orthogonalEdgeStyle;rounded=0;orthogonalLoop=1;jettySize=auto;html=1;entryX=1.001;entryY=0.19;entryDx=0;entryDy=0;entryPerimeter=0;exitX=0.003;exitY=0.1;exitDx=0;exitDy=0;exitPerimeter=0;" parent="1" source="q7zzMSOo_jR7e1-AT5cJ-1" target="i_uc1xlqpfVxm8rX9wbe-54" edge="1">
          <mxGeometry relative="1" as="geometry">
            <Array as="points" />
          </mxGeometry>
        </mxCell>
        <mxCell id="q7zzMSOo_jR7e1-AT5cJ-4" value="R[7:0]" style="edgeLabel;html=1;align=center;verticalAlign=middle;resizable=0;points=[];" parent="q7zzMSOo_jR7e1-AT5cJ-3" vertex="1" connectable="0">
          <mxGeometry x="0.15" y="1" relative="1" as="geometry">
            <mxPoint x="6" y="-11" as="offset" />
          </mxGeometry>
        </mxCell>
        <mxCell id="q7zzMSOo_jR7e1-AT5cJ-12" style="edgeStyle=orthogonalEdgeStyle;rounded=0;orthogonalLoop=1;jettySize=auto;html=1;entryX=1.001;entryY=0.297;entryDx=0;entryDy=0;exitX=0;exitY=0.219;exitDx=0;exitDy=0;exitPerimeter=0;entryPerimeter=0;" parent="1" source="q7zzMSOo_jR7e1-AT5cJ-1" target="i_uc1xlqpfVxm8rX9wbe-54" edge="1">
          <mxGeometry relative="1" as="geometry">
            <Array as="points" />
          </mxGeometry>
        </mxCell>
        <mxCell id="q7zzMSOo_jR7e1-AT5cJ-17" value="G[7:0]" style="edgeLabel;html=1;align=center;verticalAlign=middle;resizable=0;points=[];" parent="q7zzMSOo_jR7e1-AT5cJ-12" vertex="1" connectable="0">
          <mxGeometry x="0.0598" relative="1" as="geometry">
            <mxPoint y="-10" as="offset" />
          </mxGeometry>
        </mxCell>
        <mxCell id="q7zzMSOo_jR7e1-AT5cJ-13" style="edgeStyle=orthogonalEdgeStyle;rounded=0;orthogonalLoop=1;jettySize=auto;html=1;entryX=1;entryY=0.398;entryDx=0;entryDy=0;exitX=-0.001;exitY=0.332;exitDx=0;exitDy=0;exitPerimeter=0;entryPerimeter=0;" parent="1" source="q7zzMSOo_jR7e1-AT5cJ-1" target="i_uc1xlqpfVxm8rX9wbe-54" edge="1">
          <mxGeometry relative="1" as="geometry" />
        </mxCell>
        <mxCell id="q7zzMSOo_jR7e1-AT5cJ-18" value="B[7:0]" style="edgeLabel;html=1;align=center;verticalAlign=middle;resizable=0;points=[];" parent="q7zzMSOo_jR7e1-AT5cJ-13" vertex="1" connectable="0">
          <mxGeometry x="0.2072" relative="1" as="geometry">
            <mxPoint x="8" y="-10" as="offset" />
          </mxGeometry>
        </mxCell>
        <mxCell id="q7zzMSOo_jR7e1-AT5cJ-14" style="edgeStyle=orthogonalEdgeStyle;rounded=0;orthogonalLoop=1;jettySize=auto;html=1;entryX=1;entryY=0.5;entryDx=0;entryDy=0;exitX=0.004;exitY=0.444;exitDx=0;exitDy=0;exitPerimeter=0;" parent="1" source="q7zzMSOo_jR7e1-AT5cJ-1" target="i_uc1xlqpfVxm8rX9wbe-54" edge="1">
          <mxGeometry relative="1" as="geometry" />
        </mxCell>
        <mxCell id="q7zzMSOo_jR7e1-AT5cJ-19" value="is_video_data" style="edgeLabel;html=1;align=center;verticalAlign=middle;resizable=0;points=[];" parent="q7zzMSOo_jR7e1-AT5cJ-14" vertex="1" connectable="0">
          <mxGeometry x="0.0062" relative="1" as="geometry">
            <mxPoint y="-10" as="offset" />
          </mxGeometry>
        </mxCell>
        <mxCell id="q7zzMSOo_jR7e1-AT5cJ-1" value="&lt;b&gt;Pixel Counter&lt;/b&gt;" style="rounded=0;whiteSpace=wrap;html=1;" parent="1" vertex="1">
          <mxGeometry x="280" y="310" width="120" height="180" as="geometry" />
        </mxCell>
        <mxCell id="q7zzMSOo_jR7e1-AT5cJ-15" style="edgeStyle=orthogonalEdgeStyle;rounded=0;orthogonalLoop=1;jettySize=auto;html=1;entryX=1.001;entryY=0.599;entryDx=0;entryDy=0;entryPerimeter=0;exitX=0;exitY=0.554;exitDx=0;exitDy=0;exitPerimeter=0;" parent="1" source="q7zzMSOo_jR7e1-AT5cJ-1" target="i_uc1xlqpfVxm8rX9wbe-54" edge="1">
          <mxGeometry relative="1" as="geometry" />
        </mxCell>
        <mxCell id="q7zzMSOo_jR7e1-AT5cJ-20" value="H-Sync" style="edgeLabel;html=1;align=center;verticalAlign=middle;resizable=0;points=[];" parent="q7zzMSOo_jR7e1-AT5cJ-15" vertex="1" connectable="0">
          <mxGeometry x="-0.0868" relative="1" as="geometry">
            <mxPoint x="-4" y="-10" as="offset" />
          </mxGeometry>
        </mxCell>
        <mxCell id="q7zzMSOo_jR7e1-AT5cJ-16" style="edgeStyle=orthogonalEdgeStyle;rounded=0;orthogonalLoop=1;jettySize=auto;html=1;entryX=1.001;entryY=0.699;entryDx=0;entryDy=0;entryPerimeter=0;exitX=-0.003;exitY=0.665;exitDx=0;exitDy=0;exitPerimeter=0;" parent="1" source="q7zzMSOo_jR7e1-AT5cJ-1" target="i_uc1xlqpfVxm8rX9wbe-54" edge="1">
          <mxGeometry relative="1" as="geometry" />
        </mxCell>
        <mxCell id="q7zzMSOo_jR7e1-AT5cJ-21" value="V-Sync" style="edgeLabel;html=1;align=center;verticalAlign=middle;resizable=0;points=[];" parent="q7zzMSOo_jR7e1-AT5cJ-16" vertex="1" connectable="0">
          <mxGeometry x="-0.0713" relative="1" as="geometry">
            <mxPoint x="-3" y="-10" as="offset" />
          </mxGeometry>
        </mxCell>
        <mxCell id="q7zzMSOo_jR7e1-AT5cJ-22" style="edgeStyle=orthogonalEdgeStyle;rounded=0;orthogonalLoop=1;jettySize=auto;html=1;entryX=1.001;entryY=0.8;entryDx=0;entryDy=0;entryPerimeter=0;exitX=0;exitY=0.777;exitDx=0;exitDy=0;exitPerimeter=0;" parent="1" source="q7zzMSOo_jR7e1-AT5cJ-1" target="i_uc1xlqpfVxm8rX9wbe-54" edge="1">
          <mxGeometry relative="1" as="geometry" />
        </mxCell>
        <mxCell id="q7zzMSOo_jR7e1-AT5cJ-23" value="cx[11:0]" style="edgeLabel;html=1;align=center;verticalAlign=middle;resizable=0;points=[];" parent="q7zzMSOo_jR7e1-AT5cJ-22" vertex="1" connectable="0">
          <mxGeometry x="0.0076" relative="1" as="geometry">
            <mxPoint y="-10" as="offset" />
          </mxGeometry>
        </mxCell>
        <mxCell id="q7zzMSOo_jR7e1-AT5cJ-24" style="edgeStyle=orthogonalEdgeStyle;rounded=0;orthogonalLoop=1;jettySize=auto;html=1;entryX=1.004;entryY=0.894;entryDx=0;entryDy=0;entryPerimeter=0;exitX=-0.006;exitY=0.883;exitDx=0;exitDy=0;exitPerimeter=0;" parent="1" source="q7zzMSOo_jR7e1-AT5cJ-1" target="i_uc1xlqpfVxm8rX9wbe-54" edge="1">
          <mxGeometry relative="1" as="geometry" />
        </mxCell>
        <mxCell id="q7zzMSOo_jR7e1-AT5cJ-25" value="cy[11:0]" style="edgeLabel;html=1;align=center;verticalAlign=middle;resizable=0;points=[];" parent="q7zzMSOo_jR7e1-AT5cJ-24" vertex="1" connectable="0">
          <mxGeometry x="0.0914" relative="1" as="geometry">
            <mxPoint x="4" y="-10" as="offset" />
          </mxGeometry>
        </mxCell>
        <mxCell id="q7zzMSOo_jR7e1-AT5cJ-36" value="&lt;div&gt;&lt;b&gt;Channel&amp;nbsp;&lt;/b&gt;&lt;/div&gt;&lt;div&gt;&lt;b&gt;Deskew&lt;/b&gt;&lt;/div&gt;" style="rounded=0;whiteSpace=wrap;html=1;" parent="1" vertex="1">
          <mxGeometry x="460" y="320" width="70" height="100" as="geometry" />
        </mxCell>
        <mxCell id="q7zzMSOo_jR7e1-AT5cJ-38" style="edgeStyle=orthogonalEdgeStyle;rounded=0;orthogonalLoop=1;jettySize=auto;html=1;entryX=1.008;entryY=0.188;entryDx=0;entryDy=0;entryPerimeter=0;exitX=-0.001;exitY=0.191;exitDx=0;exitDy=0;exitPerimeter=0;" parent="1" source="B4w6q22N6Aw5igcjDcby-2" target="q7zzMSOo_jR7e1-AT5cJ-36" edge="1">
          <mxGeometry relative="1" as="geometry" />
        </mxCell>
        <mxCell id="q7zzMSOo_jR7e1-AT5cJ-43" value="R[7:0]" style="edgeLabel;html=1;align=center;verticalAlign=middle;resizable=0;points=[];" parent="q7zzMSOo_jR7e1-AT5cJ-38" vertex="1" connectable="0">
          <mxGeometry x="0.0089" relative="1" as="geometry">
            <mxPoint x="-2" y="-9" as="offset" />
          </mxGeometry>
        </mxCell>
        <mxCell id="q7zzMSOo_jR7e1-AT5cJ-39" style="edgeStyle=orthogonalEdgeStyle;rounded=0;orthogonalLoop=1;jettySize=auto;html=1;entryX=0.999;entryY=0.399;entryDx=0;entryDy=0;entryPerimeter=0;exitX=-0.002;exitY=0.4;exitDx=0;exitDy=0;exitPerimeter=0;" parent="1" source="B4w6q22N6Aw5igcjDcby-2" target="q7zzMSOo_jR7e1-AT5cJ-36" edge="1">
          <mxGeometry relative="1" as="geometry" />
        </mxCell>
        <mxCell id="q7zzMSOo_jR7e1-AT5cJ-44" value="C[1:0 ]" style="edgeLabel;html=1;align=center;verticalAlign=middle;resizable=0;points=[];" parent="q7zzMSOo_jR7e1-AT5cJ-39" vertex="1" connectable="0">
          <mxGeometry x="0.0976" relative="1" as="geometry">
            <mxPoint x="1" y="-10" as="offset" />
          </mxGeometry>
        </mxCell>
        <mxCell id="q7zzMSOo_jR7e1-AT5cJ-41" style="edgeStyle=orthogonalEdgeStyle;rounded=0;orthogonalLoop=1;jettySize=auto;html=1;entryX=1.006;entryY=0.6;entryDx=0;entryDy=0;entryPerimeter=0;exitX=-0.001;exitY=0.601;exitDx=0;exitDy=0;exitPerimeter=0;" parent="1" source="B4w6q22N6Aw5igcjDcby-2" target="q7zzMSOo_jR7e1-AT5cJ-36" edge="1">
          <mxGeometry relative="1" as="geometry" />
        </mxCell>
        <mxCell id="q7zzMSOo_jR7e1-AT5cJ-45" value="R[9:0]" style="edgeLabel;html=1;align=center;verticalAlign=middle;resizable=0;points=[];" parent="q7zzMSOo_jR7e1-AT5cJ-41" vertex="1" connectable="0">
          <mxGeometry x="0.0938" y="-1" relative="1" as="geometry">
            <mxPoint y="-9" as="offset" />
          </mxGeometry>
        </mxCell>
        <mxCell id="q7zzMSOo_jR7e1-AT5cJ-42" style="edgeStyle=orthogonalEdgeStyle;rounded=0;orthogonalLoop=1;jettySize=auto;html=1;entryX=1;entryY=0.8;entryDx=0;entryDy=0;entryPerimeter=0;exitX=-0.001;exitY=0.799;exitDx=0;exitDy=0;exitPerimeter=0;" parent="1" source="B4w6q22N6Aw5igcjDcby-2" target="q7zzMSOo_jR7e1-AT5cJ-36" edge="1">
          <mxGeometry relative="1" as="geometry" />
        </mxCell>
        <mxCell id="q7zzMSOo_jR7e1-AT5cJ-46" value="DE" style="edgeLabel;html=1;align=center;verticalAlign=middle;resizable=0;points=[];" parent="q7zzMSOo_jR7e1-AT5cJ-42" vertex="1" connectable="0">
          <mxGeometry x="0.1102" relative="1" as="geometry">
            <mxPoint x="1" y="-10" as="offset" />
          </mxGeometry>
        </mxCell>
        <mxCell id="q7zzMSOo_jR7e1-AT5cJ-47" style="edgeStyle=orthogonalEdgeStyle;rounded=0;orthogonalLoop=1;jettySize=auto;html=1;entryX=1.002;entryY=0.167;entryDx=0;entryDy=0;exitX=-0.001;exitY=0.199;exitDx=0;exitDy=0;exitPerimeter=0;entryPerimeter=0;" parent="1" source="q7zzMSOo_jR7e1-AT5cJ-36" target="q7zzMSOo_jR7e1-AT5cJ-1" edge="1">
          <mxGeometry relative="1" as="geometry" />
        </mxCell>
        <mxCell id="q7zzMSOo_jR7e1-AT5cJ-53" value="R[7:0]" style="edgeLabel;html=1;align=center;verticalAlign=middle;resizable=0;points=[];" parent="q7zzMSOo_jR7e1-AT5cJ-47" vertex="1" connectable="0">
          <mxGeometry x="-0.0353" relative="1" as="geometry">
            <mxPoint x="1" y="-10" as="offset" />
          </mxGeometry>
        </mxCell>
        <mxCell id="q7zzMSOo_jR7e1-AT5cJ-48" value="&lt;i&gt;...&lt;/i&gt;&lt;div&gt;&lt;i&gt;for G and B&lt;/i&gt;&lt;/div&gt;" style="text;html=1;align=center;verticalAlign=middle;whiteSpace=wrap;rounded=0;" parent="1" vertex="1">
          <mxGeometry x="540" y="410" width="45" height="40" as="geometry" />
        </mxCell>
        <mxCell id="q7zzMSOo_jR7e1-AT5cJ-49" style="edgeStyle=orthogonalEdgeStyle;rounded=0;orthogonalLoop=1;jettySize=auto;html=1;entryX=1.003;entryY=0.277;entryDx=0;entryDy=0;entryPerimeter=0;exitX=-0.003;exitY=0.399;exitDx=0;exitDy=0;exitPerimeter=0;" parent="1" source="q7zzMSOo_jR7e1-AT5cJ-36" target="q7zzMSOo_jR7e1-AT5cJ-1" edge="1">
          <mxGeometry relative="1" as="geometry" />
        </mxCell>
        <mxCell id="q7zzMSOo_jR7e1-AT5cJ-54" value="C[1:0]" style="edgeLabel;html=1;align=center;verticalAlign=middle;resizable=0;points=[];" parent="q7zzMSOo_jR7e1-AT5cJ-49" vertex="1" connectable="0">
          <mxGeometry x="-0.1044" relative="1" as="geometry">
            <mxPoint x="-1" y="-10" as="offset" />
          </mxGeometry>
        </mxCell>
        <mxCell id="q7zzMSOo_jR7e1-AT5cJ-50" style="edgeStyle=orthogonalEdgeStyle;rounded=0;orthogonalLoop=1;jettySize=auto;html=1;entryX=1.003;entryY=0.389;entryDx=0;entryDy=0;entryPerimeter=0;exitX=0.002;exitY=0.599;exitDx=0;exitDy=0;exitPerimeter=0;" parent="1" source="q7zzMSOo_jR7e1-AT5cJ-36" target="q7zzMSOo_jR7e1-AT5cJ-1" edge="1">
          <mxGeometry relative="1" as="geometry" />
        </mxCell>
        <mxCell id="q7zzMSOo_jR7e1-AT5cJ-55" value="R[9:0]" style="edgeLabel;html=1;align=center;verticalAlign=middle;resizable=0;points=[];" parent="q7zzMSOo_jR7e1-AT5cJ-50" vertex="1" connectable="0">
          <mxGeometry x="-0.1575" relative="1" as="geometry">
            <mxPoint x="-2" y="-10" as="offset" />
          </mxGeometry>
        </mxCell>
        <mxCell id="q7zzMSOo_jR7e1-AT5cJ-51" style="edgeStyle=orthogonalEdgeStyle;rounded=0;orthogonalLoop=1;jettySize=auto;html=1;entryX=1;entryY=0.5;entryDx=0;entryDy=0;" parent="1" target="q7zzMSOo_jR7e1-AT5cJ-1" edge="1">
          <mxGeometry relative="1" as="geometry">
            <mxPoint x="460" y="400" as="sourcePoint" />
            <Array as="points">
              <mxPoint x="430" y="400" />
              <mxPoint x="430" y="400" />
            </Array>
          </mxGeometry>
        </mxCell>
        <mxCell id="q7zzMSOo_jR7e1-AT5cJ-56" value="DE" style="edgeLabel;html=1;align=center;verticalAlign=middle;resizable=0;points=[];" parent="q7zzMSOo_jR7e1-AT5cJ-51" vertex="1" connectable="0">
          <mxGeometry x="0.0824" y="1" relative="1" as="geometry">
            <mxPoint x="4" y="-11" as="offset" />
          </mxGeometry>
        </mxCell>
        <mxCell id="q7zzMSOo_jR7e1-AT5cJ-71" style="edgeStyle=orthogonalEdgeStyle;rounded=0;orthogonalLoop=1;jettySize=auto;html=1;exitX=0.83;exitY=1.002;exitDx=0;exitDy=0;entryX=0.75;entryY=0;entryDx=0;entryDy=0;exitPerimeter=0;strokeColor=#C73500;" parent="1" source="TScCZYWJyUS9mnTxurQc-1" target="q7zzMSOo_jR7e1-AT5cJ-36" edge="1">
          <mxGeometry relative="1" as="geometry" />
        </mxCell>
        <mxCell id="q7zzMSOo_jR7e1-AT5cJ-78" value="&lt;font color=&quot;#c73500&quot;&gt;channel_deskew_debug_ctrl&lt;/font&gt;" style="edgeLabel;html=1;align=center;verticalAlign=middle;resizable=0;points=[];rotation=90;" parent="q7zzMSOo_jR7e1-AT5cJ-71" vertex="1" connectable="0">
          <mxGeometry x="-0.0689" y="1" relative="1" as="geometry">
            <mxPoint x="17" y="5" as="offset" />
          </mxGeometry>
        </mxCell>
        <mxCell id="q7zzMSOo_jR7e1-AT5cJ-73" style="edgeStyle=orthogonalEdgeStyle;rounded=0;orthogonalLoop=1;jettySize=auto;html=1;exitX=0.321;exitY=1.02;exitDx=0;exitDy=0;entryX=0.75;entryY=0;entryDx=0;entryDy=0;exitPerimeter=0;strokeColor=#C73500;" parent="1" source="TScCZYWJyUS9mnTxurQc-1" target="q7zzMSOo_jR7e1-AT5cJ-1" edge="1">
          <mxGeometry relative="1" as="geometry" />
        </mxCell>
        <mxCell id="q7zzMSOo_jR7e1-AT5cJ-80" value="&lt;font color=&quot;#c73500&quot;&gt;pixel_counter_debug_ctrl&lt;/font&gt;" style="edgeLabel;html=1;align=center;verticalAlign=middle;resizable=0;points=[];rotation=90;" parent="q7zzMSOo_jR7e1-AT5cJ-73" vertex="1" connectable="0">
          <mxGeometry x="0.0768" relative="1" as="geometry">
            <mxPoint x="20" y="-11" as="offset" />
          </mxGeometry>
        </mxCell>
        <mxCell id="q7zzMSOo_jR7e1-AT5cJ-74" style="edgeStyle=orthogonalEdgeStyle;rounded=0;orthogonalLoop=1;jettySize=auto;html=1;exitX=0.25;exitY=0;exitDx=0;exitDy=0;entryX=0.106;entryY=1.025;entryDx=0;entryDy=0;entryPerimeter=0;strokeColor=#0447BA;" parent="1" source="q7zzMSOo_jR7e1-AT5cJ-1" target="TScCZYWJyUS9mnTxurQc-1" edge="1">
          <mxGeometry relative="1" as="geometry" />
        </mxCell>
        <mxCell id="q7zzMSOo_jR7e1-AT5cJ-81" value="&lt;font color=&quot;#0447ba&quot;&gt;pixel_counter_debug&lt;/font&gt;" style="edgeLabel;html=1;align=center;verticalAlign=middle;resizable=0;points=[];rotation=90;" parent="q7zzMSOo_jR7e1-AT5cJ-74" vertex="1" connectable="0">
          <mxGeometry x="-0.0684" relative="1" as="geometry">
            <mxPoint x="20" y="-11" as="offset" />
          </mxGeometry>
        </mxCell>
      </root>
    </mxGraphModel>
  </diagram>
</mxfile>
